<mxfile host="app.diagrams.net" modified="2022-08-03T09:18:39.758Z" agent="5.0 (Macintosh; Intel Mac OS X 10_15_7) AppleWebKit/537.36 (KHTML, like Gecko) Chrome/103.0.0.0 Safari/537.36" etag="s-v8rYC26xXllpZDUj0n" version="18.0.3" type="github">
  <diagram id="0SXw6FP6OlJzwyiEvHwo" name="Page-1">
    <mxGraphModel dx="1351" dy="806" grid="1" gridSize="10" guides="1" tooltips="1" connect="1" arrows="1" fold="1" page="1" pageScale="1" pageWidth="827" pageHeight="1169" math="0" shadow="0">
      <root>
        <mxCell id="0" />
        <mxCell id="1" parent="0" />
        <mxCell id="GICmU96DJvmR7lwBdve_-9" value="Pool" style="swimlane;childLayout=stackLayout;resizeParent=1;resizeParentMax=0;startSize=20;horizontal=0;horizontalStack=1;" vertex="1" parent="1">
          <mxGeometry x="380" y="190" width="370" height="710" as="geometry">
            <mxRectangle x="380" y="190" width="30" height="50" as="alternateBounds" />
          </mxGeometry>
        </mxCell>
        <mxCell id="GICmU96DJvmR7lwBdve_-10" value="点击事件" style="swimlane;startSize=20;" vertex="1" parent="GICmU96DJvmR7lwBdve_-9">
          <mxGeometry x="20" width="110" height="710" as="geometry" />
        </mxCell>
        <mxCell id="GICmU96DJvmR7lwBdve_-14" value="渠道点击下发" style="rounded=1;whiteSpace=wrap;html=1;" vertex="1" parent="GICmU96DJvmR7lwBdve_-10">
          <mxGeometry x="15" y="50" width="90" height="40" as="geometry" />
        </mxCell>
        <mxCell id="GICmU96DJvmR7lwBdve_-11" value="DB&amp;数仓" style="swimlane;startSize=20;" vertex="1" parent="GICmU96DJvmR7lwBdve_-9">
          <mxGeometry x="130" width="120" height="710" as="geometry" />
        </mxCell>
        <mxCell id="GICmU96DJvmR7lwBdve_-15" value="设备 : 渠道" style="rounded=1;whiteSpace=wrap;html=1;" vertex="1" parent="GICmU96DJvmR7lwBdve_-11">
          <mxGeometry x="15" y="160" width="90" height="40" as="geometry" />
        </mxCell>
        <mxCell id="GICmU96DJvmR7lwBdve_-17" value="设备 : 点击" style="rounded=1;whiteSpace=wrap;html=1;" vertex="1" parent="GICmU96DJvmR7lwBdve_-11">
          <mxGeometry x="15" y="300" width="90" height="40" as="geometry" />
        </mxCell>
        <mxCell id="GICmU96DJvmR7lwBdve_-77" value="归因类型 : 点击" style="rounded=1;whiteSpace=wrap;html=1;" vertex="1" parent="GICmU96DJvmR7lwBdve_-11">
          <mxGeometry x="15" y="630" width="90" height="40" as="geometry" />
        </mxCell>
        <mxCell id="GICmU96DJvmR7lwBdve_-12" value="激活，登录，注册" style="swimlane;startSize=20;" vertex="1" parent="GICmU96DJvmR7lwBdve_-9">
          <mxGeometry x="250" width="120" height="710" as="geometry" />
        </mxCell>
        <mxCell id="GICmU96DJvmR7lwBdve_-27" style="edgeStyle=orthogonalEdgeStyle;rounded=0;orthogonalLoop=1;jettySize=auto;html=1;" edge="1" parent="GICmU96DJvmR7lwBdve_-12" source="GICmU96DJvmR7lwBdve_-19" target="GICmU96DJvmR7lwBdve_-24">
          <mxGeometry relative="1" as="geometry" />
        </mxCell>
        <mxCell id="GICmU96DJvmR7lwBdve_-19" value="用户事件" style="rounded=1;whiteSpace=wrap;html=1;" vertex="1" parent="GICmU96DJvmR7lwBdve_-12">
          <mxGeometry x="15" y="50" width="90" height="40" as="geometry" />
        </mxCell>
        <mxCell id="GICmU96DJvmR7lwBdve_-24" value="头条" style="rhombus;whiteSpace=wrap;html=1;" vertex="1" parent="GICmU96DJvmR7lwBdve_-12">
          <mxGeometry x="20" y="220" width="80" height="40" as="geometry" />
        </mxCell>
        <mxCell id="GICmU96DJvmR7lwBdve_-20" style="edgeStyle=orthogonalEdgeStyle;rounded=0;orthogonalLoop=1;jettySize=auto;html=1;entryX=0.5;entryY=0;entryDx=0;entryDy=0;" edge="1" parent="GICmU96DJvmR7lwBdve_-9" source="GICmU96DJvmR7lwBdve_-14" target="GICmU96DJvmR7lwBdve_-15">
          <mxGeometry relative="1" as="geometry" />
        </mxCell>
        <mxCell id="GICmU96DJvmR7lwBdve_-51" value="按照接收点击&lt;br&gt;时间存储" style="edgeLabel;html=1;align=center;verticalAlign=middle;resizable=0;points=[];" vertex="1" connectable="0" parent="GICmU96DJvmR7lwBdve_-20">
          <mxGeometry x="0.3394" y="-2" relative="1" as="geometry">
            <mxPoint as="offset" />
          </mxGeometry>
        </mxCell>
        <mxCell id="GICmU96DJvmR7lwBdve_-21" style="edgeStyle=orthogonalEdgeStyle;rounded=0;orthogonalLoop=1;jettySize=auto;html=1;entryX=1;entryY=0.5;entryDx=0;entryDy=0;" edge="1" parent="GICmU96DJvmR7lwBdve_-9" source="GICmU96DJvmR7lwBdve_-19" target="GICmU96DJvmR7lwBdve_-15">
          <mxGeometry relative="1" as="geometry">
            <Array as="points">
              <mxPoint x="310" y="180" />
            </Array>
          </mxGeometry>
        </mxCell>
        <mxCell id="GICmU96DJvmR7lwBdve_-22" value="按优先级&lt;br&gt;查找渠道" style="edgeLabel;html=1;align=center;verticalAlign=middle;resizable=0;points=[];" vertex="1" connectable="0" parent="GICmU96DJvmR7lwBdve_-21">
          <mxGeometry x="-0.503" relative="1" as="geometry">
            <mxPoint as="offset" />
          </mxGeometry>
        </mxCell>
        <mxCell id="GICmU96DJvmR7lwBdve_-25" style="edgeStyle=orthogonalEdgeStyle;rounded=0;orthogonalLoop=1;jettySize=auto;html=1;entryX=0;entryY=0.5;entryDx=0;entryDy=0;" edge="1" parent="GICmU96DJvmR7lwBdve_-9" source="GICmU96DJvmR7lwBdve_-14" target="GICmU96DJvmR7lwBdve_-17">
          <mxGeometry relative="1" as="geometry">
            <Array as="points">
              <mxPoint x="80" y="320" />
            </Array>
          </mxGeometry>
        </mxCell>
        <mxCell id="GICmU96DJvmR7lwBdve_-26" value="保留最近 10 条" style="edgeLabel;html=1;align=center;verticalAlign=middle;resizable=0;points=[];" vertex="1" connectable="0" parent="GICmU96DJvmR7lwBdve_-25">
          <mxGeometry x="-0.2754" y="-1" relative="1" as="geometry">
            <mxPoint as="offset" />
          </mxGeometry>
        </mxCell>
        <mxCell id="GICmU96DJvmR7lwBdve_-35" value="是" style="edgeStyle=orthogonalEdgeStyle;rounded=0;orthogonalLoop=1;jettySize=auto;html=1;entryX=0.5;entryY=0;entryDx=0;entryDy=0;" edge="1" parent="1" source="GICmU96DJvmR7lwBdve_-24" target="GICmU96DJvmR7lwBdve_-34">
          <mxGeometry relative="1" as="geometry" />
        </mxCell>
        <mxCell id="GICmU96DJvmR7lwBdve_-37" style="edgeStyle=orthogonalEdgeStyle;rounded=0;orthogonalLoop=1;jettySize=auto;html=1;entryX=0;entryY=0.5;entryDx=0;entryDy=0;" edge="1" parent="1" source="GICmU96DJvmR7lwBdve_-24" target="GICmU96DJvmR7lwBdve_-36">
          <mxGeometry relative="1" as="geometry">
            <Array as="points">
              <mxPoint x="690" y="550" />
            </Array>
          </mxGeometry>
        </mxCell>
        <mxCell id="GICmU96DJvmR7lwBdve_-38" value="否" style="edgeLabel;html=1;align=center;verticalAlign=middle;resizable=0;points=[];" vertex="1" connectable="0" parent="GICmU96DJvmR7lwBdve_-37">
          <mxGeometry x="0.5771" y="1" relative="1" as="geometry">
            <mxPoint y="1" as="offset" />
          </mxGeometry>
        </mxCell>
        <mxCell id="GICmU96DJvmR7lwBdve_-39" style="edgeStyle=orthogonalEdgeStyle;rounded=0;orthogonalLoop=1;jettySize=auto;html=1;entryX=0.5;entryY=0;entryDx=0;entryDy=0;" edge="1" parent="1" source="GICmU96DJvmR7lwBdve_-34" target="GICmU96DJvmR7lwBdve_-17">
          <mxGeometry relative="1" as="geometry" />
        </mxCell>
        <mxCell id="GICmU96DJvmR7lwBdve_-53" style="edgeStyle=orthogonalEdgeStyle;rounded=0;orthogonalLoop=1;jettySize=auto;html=1;entryX=0.5;entryY=1;entryDx=0;entryDy=0;" edge="1" parent="1" source="GICmU96DJvmR7lwBdve_-36" target="GICmU96DJvmR7lwBdve_-17">
          <mxGeometry relative="1" as="geometry">
            <Array as="points">
              <mxPoint x="820" y="610" />
              <mxPoint x="570" y="610" />
            </Array>
          </mxGeometry>
        </mxCell>
        <mxCell id="GICmU96DJvmR7lwBdve_-64" value="回传" style="swimlane;startSize=20;" vertex="1" parent="1">
          <mxGeometry x="1270" y="190" width="260" height="710" as="geometry" />
        </mxCell>
        <mxCell id="GICmU96DJvmR7lwBdve_-92" value="失败或者不回传" style="edgeStyle=orthogonalEdgeStyle;rounded=0;orthogonalLoop=1;jettySize=auto;html=1;entryX=0.5;entryY=0;entryDx=0;entryDy=0;" edge="1" parent="GICmU96DJvmR7lwBdve_-64" source="GICmU96DJvmR7lwBdve_-81" target="GICmU96DJvmR7lwBdve_-91">
          <mxGeometry x="0.0588" y="5" relative="1" as="geometry">
            <mxPoint as="offset" />
          </mxGeometry>
        </mxCell>
        <mxCell id="GICmU96DJvmR7lwBdve_-81" value="结果" style="rhombus;whiteSpace=wrap;html=1;" vertex="1" parent="GICmU96DJvmR7lwBdve_-64">
          <mxGeometry x="20" y="490" width="80" height="40" as="geometry" />
        </mxCell>
        <mxCell id="GICmU96DJvmR7lwBdve_-87" value="" style="edgeStyle=orthogonalEdgeStyle;rounded=0;orthogonalLoop=1;jettySize=auto;html=1;entryX=0.5;entryY=0;entryDx=0;entryDy=0;" edge="1" parent="GICmU96DJvmR7lwBdve_-64" source="GICmU96DJvmR7lwBdve_-82" target="GICmU96DJvmR7lwBdve_-81">
          <mxGeometry relative="1" as="geometry" />
        </mxCell>
        <mxCell id="GICmU96DJvmR7lwBdve_-82" value="根据账户ID&lt;br&gt;或者 custom_ch 回传" style="rounded=1;whiteSpace=wrap;html=1;" vertex="1" parent="GICmU96DJvmR7lwBdve_-64">
          <mxGeometry x="15" y="375" width="90" height="40" as="geometry" />
        </mxCell>
        <mxCell id="GICmU96DJvmR7lwBdve_-99" style="edgeStyle=orthogonalEdgeStyle;rounded=0;orthogonalLoop=1;jettySize=auto;html=1;" edge="1" parent="GICmU96DJvmR7lwBdve_-64" source="GICmU96DJvmR7lwBdve_-91" target="GICmU96DJvmR7lwBdve_-98">
          <mxGeometry relative="1" as="geometry">
            <Array as="points">
              <mxPoint x="205" y="570" />
            </Array>
          </mxGeometry>
        </mxCell>
        <mxCell id="GICmU96DJvmR7lwBdve_-100" value="是" style="edgeLabel;html=1;align=center;verticalAlign=middle;resizable=0;points=[];" vertex="1" connectable="0" parent="GICmU96DJvmR7lwBdve_-99">
          <mxGeometry x="-0.08" relative="1" as="geometry">
            <mxPoint as="offset" />
          </mxGeometry>
        </mxCell>
        <mxCell id="GICmU96DJvmR7lwBdve_-91" value="百度等" style="rhombus;whiteSpace=wrap;html=1;" vertex="1" parent="GICmU96DJvmR7lwBdve_-64">
          <mxGeometry x="105" y="550" width="80" height="40" as="geometry" />
        </mxCell>
        <mxCell id="GICmU96DJvmR7lwBdve_-98" value="不同步数仓" style="rounded=1;whiteSpace=wrap;html=1;" vertex="1" parent="GICmU96DJvmR7lwBdve_-64">
          <mxGeometry x="160" y="650" width="90" height="40" as="geometry" />
        </mxCell>
        <mxCell id="GICmU96DJvmR7lwBdve_-29" value="点击查找" style="swimlane;startSize=20;" vertex="1" parent="1">
          <mxGeometry x="750" y="190" width="120" height="710" as="geometry" />
        </mxCell>
        <mxCell id="GICmU96DJvmR7lwBdve_-34" value="查找24 h&lt;br&gt;头条点击&lt;br&gt;或者曝光" style="rounded=1;whiteSpace=wrap;html=1;" vertex="1" parent="GICmU96DJvmR7lwBdve_-29">
          <mxGeometry x="15" y="260" width="90" height="40" as="geometry" />
        </mxCell>
        <mxCell id="GICmU96DJvmR7lwBdve_-36" value="查找 24h&amp;nbsp;&lt;br&gt;对应渠道点击" style="rounded=1;whiteSpace=wrap;html=1;" vertex="1" parent="GICmU96DJvmR7lwBdve_-29">
          <mxGeometry x="15" y="340" width="90" height="40" as="geometry" />
        </mxCell>
        <mxCell id="GICmU96DJvmR7lwBdve_-40" value="归因详情" style="swimlane;startSize=20;" vertex="1" parent="1">
          <mxGeometry x="870" y="190" width="280" height="710" as="geometry" />
        </mxCell>
        <mxCell id="GICmU96DJvmR7lwBdve_-60" style="edgeStyle=orthogonalEdgeStyle;rounded=0;orthogonalLoop=1;jettySize=auto;html=1;entryX=0.5;entryY=0;entryDx=0;entryDy=0;" edge="1" parent="GICmU96DJvmR7lwBdve_-40" source="GICmU96DJvmR7lwBdve_-42" target="GICmU96DJvmR7lwBdve_-59">
          <mxGeometry relative="1" as="geometry" />
        </mxCell>
        <mxCell id="GICmU96DJvmR7lwBdve_-42" value="拦截无效设备" style="rounded=1;whiteSpace=wrap;html=1;" vertex="1" parent="GICmU96DJvmR7lwBdve_-40">
          <mxGeometry x="15" y="340" width="90" height="40" as="geometry" />
        </mxCell>
        <mxCell id="GICmU96DJvmR7lwBdve_-75" style="edgeStyle=orthogonalEdgeStyle;rounded=0;orthogonalLoop=1;jettySize=auto;html=1;entryX=0.5;entryY=0;entryDx=0;entryDy=0;" edge="1" parent="GICmU96DJvmR7lwBdve_-40" source="GICmU96DJvmR7lwBdve_-59" target="GICmU96DJvmR7lwBdve_-63">
          <mxGeometry relative="1" as="geometry" />
        </mxCell>
        <mxCell id="GICmU96DJvmR7lwBdve_-59" value="校验快手&lt;br&gt;点击与陌陌&lt;br&gt;系统一致性" style="rounded=1;whiteSpace=wrap;html=1;" vertex="1" parent="GICmU96DJvmR7lwBdve_-40">
          <mxGeometry x="15" y="410" width="90" height="40" as="geometry" />
        </mxCell>
        <mxCell id="GICmU96DJvmR7lwBdve_-69" value="登录" style="edgeStyle=orthogonalEdgeStyle;rounded=0;orthogonalLoop=1;jettySize=auto;html=1;entryX=0.5;entryY=0;entryDx=0;entryDy=0;" edge="1" parent="GICmU96DJvmR7lwBdve_-40" source="GICmU96DJvmR7lwBdve_-63" target="GICmU96DJvmR7lwBdve_-68">
          <mxGeometry relative="1" as="geometry" />
        </mxCell>
        <mxCell id="GICmU96DJvmR7lwBdve_-76" style="edgeStyle=orthogonalEdgeStyle;rounded=0;orthogonalLoop=1;jettySize=auto;html=1;entryX=0.5;entryY=0;entryDx=0;entryDy=0;" edge="1" parent="GICmU96DJvmR7lwBdve_-40" source="GICmU96DJvmR7lwBdve_-63" target="GICmU96DJvmR7lwBdve_-70">
          <mxGeometry relative="1" as="geometry" />
        </mxCell>
        <mxCell id="GICmU96DJvmR7lwBdve_-101" value="活跃" style="edgeLabel;html=1;align=center;verticalAlign=middle;resizable=0;points=[];" vertex="1" connectable="0" parent="GICmU96DJvmR7lwBdve_-76">
          <mxGeometry x="-0.1684" y="-1" relative="1" as="geometry">
            <mxPoint as="offset" />
          </mxGeometry>
        </mxCell>
        <mxCell id="GICmU96DJvmR7lwBdve_-63" value="类型" style="rhombus;whiteSpace=wrap;html=1;" vertex="1" parent="GICmU96DJvmR7lwBdve_-40">
          <mxGeometry x="55" y="480" width="80" height="40" as="geometry" />
        </mxCell>
        <mxCell id="GICmU96DJvmR7lwBdve_-96" value="" style="edgeStyle=orthogonalEdgeStyle;rounded=0;orthogonalLoop=1;jettySize=auto;html=1;" edge="1" parent="GICmU96DJvmR7lwBdve_-40" source="GICmU96DJvmR7lwBdve_-68" target="GICmU96DJvmR7lwBdve_-63">
          <mxGeometry relative="1" as="geometry" />
        </mxCell>
        <mxCell id="GICmU96DJvmR7lwBdve_-68" value="判定 momoid&amp;nbsp;&lt;br&gt;30 天是否活跃" style="rounded=1;whiteSpace=wrap;html=1;" vertex="1" parent="GICmU96DJvmR7lwBdve_-40">
          <mxGeometry x="50" y="580" width="90" height="40" as="geometry" />
        </mxCell>
        <mxCell id="GICmU96DJvmR7lwBdve_-70" value="判定 30 是否活跃过" style="rounded=1;whiteSpace=wrap;html=1;" vertex="1" parent="GICmU96DJvmR7lwBdve_-40">
          <mxGeometry x="160" y="520" width="90" height="40" as="geometry" />
        </mxCell>
        <mxCell id="GICmU96DJvmR7lwBdve_-43" value="ASA" style="swimlane;startSize=20;" vertex="1" parent="1">
          <mxGeometry x="1150" y="190" width="120" height="710" as="geometry" />
        </mxCell>
        <mxCell id="GICmU96DJvmR7lwBdve_-46" style="edgeStyle=orthogonalEdgeStyle;rounded=0;orthogonalLoop=1;jettySize=auto;html=1;entryX=0.5;entryY=0;entryDx=0;entryDy=0;" edge="1" parent="GICmU96DJvmR7lwBdve_-43" source="GICmU96DJvmR7lwBdve_-44" target="GICmU96DJvmR7lwBdve_-45">
          <mxGeometry relative="1" as="geometry" />
        </mxCell>
        <mxCell id="GICmU96DJvmR7lwBdve_-44" value="ASA 事件" style="rounded=1;whiteSpace=wrap;html=1;" vertex="1" parent="GICmU96DJvmR7lwBdve_-43">
          <mxGeometry x="15" y="50" width="90" height="40" as="geometry" />
        </mxCell>
        <mxCell id="GICmU96DJvmR7lwBdve_-48" style="edgeStyle=orthogonalEdgeStyle;rounded=0;orthogonalLoop=1;jettySize=auto;html=1;entryX=0.5;entryY=0;entryDx=0;entryDy=0;" edge="1" parent="GICmU96DJvmR7lwBdve_-43" source="GICmU96DJvmR7lwBdve_-45" target="GICmU96DJvmR7lwBdve_-47">
          <mxGeometry relative="1" as="geometry" />
        </mxCell>
        <mxCell id="GICmU96DJvmR7lwBdve_-45" value="获取苹果 token" style="rounded=1;whiteSpace=wrap;html=1;" vertex="1" parent="GICmU96DJvmR7lwBdve_-43">
          <mxGeometry x="15" y="130" width="90" height="40" as="geometry" />
        </mxCell>
        <mxCell id="GICmU96DJvmR7lwBdve_-50" style="edgeStyle=orthogonalEdgeStyle;rounded=0;orthogonalLoop=1;jettySize=auto;html=1;entryX=0.5;entryY=0;entryDx=0;entryDy=0;" edge="1" parent="GICmU96DJvmR7lwBdve_-43" source="GICmU96DJvmR7lwBdve_-47" target="GICmU96DJvmR7lwBdve_-49">
          <mxGeometry relative="1" as="geometry" />
        </mxCell>
        <mxCell id="GICmU96DJvmR7lwBdve_-47" value="查找苹果归因结果" style="rounded=1;whiteSpace=wrap;html=1;" vertex="1" parent="GICmU96DJvmR7lwBdve_-43">
          <mxGeometry x="15" y="210" width="90" height="40" as="geometry" />
        </mxCell>
        <mxCell id="GICmU96DJvmR7lwBdve_-49" value="存储归因结果" style="rounded=1;whiteSpace=wrap;html=1;" vertex="1" parent="GICmU96DJvmR7lwBdve_-43">
          <mxGeometry x="15" y="630" width="90" height="40" as="geometry" />
        </mxCell>
        <mxCell id="GICmU96DJvmR7lwBdve_-56" style="edgeStyle=orthogonalEdgeStyle;rounded=0;orthogonalLoop=1;jettySize=auto;html=1;" edge="1" parent="1" source="GICmU96DJvmR7lwBdve_-34" target="GICmU96DJvmR7lwBdve_-42">
          <mxGeometry relative="1" as="geometry" />
        </mxCell>
        <mxCell id="GICmU96DJvmR7lwBdve_-57" value="" style="edgeStyle=orthogonalEdgeStyle;rounded=0;orthogonalLoop=1;jettySize=auto;html=1;" edge="1" parent="1" source="GICmU96DJvmR7lwBdve_-36" target="GICmU96DJvmR7lwBdve_-42">
          <mxGeometry relative="1" as="geometry" />
        </mxCell>
        <mxCell id="GICmU96DJvmR7lwBdve_-78" style="edgeStyle=orthogonalEdgeStyle;rounded=0;orthogonalLoop=1;jettySize=auto;html=1;entryX=1;entryY=0.5;entryDx=0;entryDy=0;" edge="1" parent="1" source="GICmU96DJvmR7lwBdve_-49" target="GICmU96DJvmR7lwBdve_-77">
          <mxGeometry relative="1" as="geometry" />
        </mxCell>
        <mxCell id="GICmU96DJvmR7lwBdve_-85" style="edgeStyle=orthogonalEdgeStyle;rounded=0;orthogonalLoop=1;jettySize=auto;html=1;entryX=0;entryY=0.5;entryDx=0;entryDy=0;" edge="1" parent="1" source="GICmU96DJvmR7lwBdve_-68" target="GICmU96DJvmR7lwBdve_-82">
          <mxGeometry relative="1" as="geometry">
            <Array as="points">
              <mxPoint x="1130" y="790" />
              <mxPoint x="1130" y="585" />
            </Array>
          </mxGeometry>
        </mxCell>
        <mxCell id="GICmU96DJvmR7lwBdve_-86" style="edgeStyle=orthogonalEdgeStyle;rounded=0;orthogonalLoop=1;jettySize=auto;html=1;entryX=0;entryY=0.5;entryDx=0;entryDy=0;" edge="1" parent="1" source="GICmU96DJvmR7lwBdve_-70" target="GICmU96DJvmR7lwBdve_-82">
          <mxGeometry relative="1" as="geometry">
            <Array as="points">
              <mxPoint x="1130" y="730" />
              <mxPoint x="1130" y="585" />
            </Array>
          </mxGeometry>
        </mxCell>
        <mxCell id="GICmU96DJvmR7lwBdve_-89" style="edgeStyle=orthogonalEdgeStyle;rounded=0;orthogonalLoop=1;jettySize=auto;html=1;entryX=0.5;entryY=1;entryDx=0;entryDy=0;" edge="1" parent="1" source="GICmU96DJvmR7lwBdve_-81" target="GICmU96DJvmR7lwBdve_-77">
          <mxGeometry relative="1" as="geometry">
            <Array as="points">
              <mxPoint x="1330" y="880" />
              <mxPoint x="570" y="880" />
            </Array>
          </mxGeometry>
        </mxCell>
        <mxCell id="GICmU96DJvmR7lwBdve_-90" value="成功" style="edgeLabel;html=1;align=center;verticalAlign=middle;resizable=0;points=[];" vertex="1" connectable="0" parent="GICmU96DJvmR7lwBdve_-89">
          <mxGeometry x="-0.8745" relative="1" as="geometry">
            <mxPoint as="offset" />
          </mxGeometry>
        </mxCell>
        <mxCell id="GICmU96DJvmR7lwBdve_-95" style="edgeStyle=orthogonalEdgeStyle;rounded=0;orthogonalLoop=1;jettySize=auto;html=1;" edge="1" parent="1" source="GICmU96DJvmR7lwBdve_-91">
          <mxGeometry relative="1" as="geometry">
            <mxPoint x="570" y="860" as="targetPoint" />
            <Array as="points">
              <mxPoint x="1415" y="880" />
              <mxPoint x="570" y="880" />
            </Array>
          </mxGeometry>
        </mxCell>
        <mxCell id="GICmU96DJvmR7lwBdve_-97" value="否" style="edgeLabel;html=1;align=center;verticalAlign=middle;resizable=0;points=[];" vertex="1" connectable="0" parent="GICmU96DJvmR7lwBdve_-95">
          <mxGeometry x="-0.9358" y="1" relative="1" as="geometry">
            <mxPoint as="offset" />
          </mxGeometry>
        </mxCell>
      </root>
    </mxGraphModel>
  </diagram>
</mxfile>
